<?xml version="1.0" standalone="no"?>
 <!DOCTYPE svg PUBLIC "-//W3C//DTD SVG 1.1//EN" 
 "http://www.w3.org/Graphics/SVG/1.1/DTD/svg11.dtd"> 
<svg
  xmlns:svg="http://www.w3.org/2000/svg"
  xmlns="http://www.w3.org/2000/svg"
  xmlns:xlink="http://www.w3.org/1999/xlink"
  version="1.1"
  width="29.700220cm" height="21.000720cm" viewBox="0 0 116930 82680">
<title>SVG Picture created as MicroDexed-Touch-F_Fab.svg date 2025/03/01 10:31:13 </title>
  <desc>Picture generated by PCBNEW </desc>
<g style="fill:#000000; fill-opacity:1;stroke:#000000; stroke-opacity:1;
stroke-linecap:round; stroke-linejoin:round;"
 transform="translate(0 0) scale(1 1)">
</g>
<g style="fill:#000000; fill-opacity:0.0; 
stroke:#000000; stroke-width:-0.000393701; stroke-opacity:1; 
stroke-linecap:round; stroke-linejoin:round;">
</g>
<g style="fill:#000000; fill-opacity:0.0; 
stroke:#000000; stroke-width:39.3701; stroke-opacity:1; 
stroke-linecap:round; stroke-linejoin:round;">
</g>
<g style="fill:#000000; fill-opacity:0.0; 
stroke:#000000; stroke-width:59.0551; stroke-opacity:1; 
stroke-linecap:round; stroke-linejoin:round;">
<rect x="69685.9" y="65357.2" width="42519.7" height="12598.4" rx="0" />
</g>
<g style="fill:#000000; fill-opacity:0.0; 
stroke:#000000; stroke-width:39.3701; stroke-opacity:1; 
stroke-linecap:round; stroke-linejoin:round;">
</g>
<g style="fill:#000000; fill-opacity:0.0; 
stroke:#000000; stroke-width:59.0551; stroke-opacity:1; 
stroke-linecap:round; stroke-linejoin:round;">
<rect x="3937.01" y="3937.01" width="109056" height="74806" rx="0" />
</g>
<g style="fill:#000000; fill-opacity:0.0; 
stroke:#000000; stroke-width:39.3701; stroke-opacity:1; 
stroke-linecap:round; stroke-linejoin:round;">
</g>
<g style="fill:#000000; fill-opacity:0.0; 
stroke:#000000; stroke-width:59.0551; stroke-opacity:1; 
stroke-linecap:round; stroke-linejoin:round;">
<rect x="4724.41" y="4724.41" width="107481" height="73231.2" rx="0" />
</g>
<g style="fill:#000000; fill-opacity:0.0; 
stroke:#000000; stroke-width:39.3701; stroke-opacity:1; 
stroke-linecap:round; stroke-linejoin:round;">
</g>
<g style="fill:#000000; fill-opacity:0.0; 
stroke:#000000; stroke-width:59.0551; stroke-opacity:1; 
stroke-linecap:round; stroke-linejoin:round;">
<path d="M23622 4724
L23622 3937
" />
</g>
<g style="fill:#000000; fill-opacity:0.0; 
stroke:#000000; stroke-width:39.3701; stroke-opacity:1; 
stroke-linecap:round; stroke-linejoin:round;">
</g>
<g style="fill:#000000; fill-opacity:0.0; 
stroke:#000000; stroke-width:59.0551; stroke-opacity:1; 
stroke-linecap:round; stroke-linejoin:round;">
<path d="M43307 4724
L43307 3937
" />
</g>
<g style="fill:#000000; fill-opacity:0.0; 
stroke:#000000; stroke-width:39.3701; stroke-opacity:1; 
stroke-linecap:round; stroke-linejoin:round;">
</g>
<g style="fill:#000000; fill-opacity:0.0; 
stroke:#000000; stroke-width:59.0551; stroke-opacity:1; 
stroke-linecap:round; stroke-linejoin:round;">
<path d="M62992 4724
L62992 3937
" />
</g>
<g style="fill:#000000; fill-opacity:0.0; 
stroke:#000000; stroke-width:39.3701; stroke-opacity:1; 
stroke-linecap:round; stroke-linejoin:round;">
</g>
<g style="fill:#000000; fill-opacity:0.0; 
stroke:#000000; stroke-width:59.0551; stroke-opacity:1; 
stroke-linecap:round; stroke-linejoin:round;">
<path d="M82677 4724
L82677 3937
" />
</g>
<g style="fill:#000000; fill-opacity:0.0; 
stroke:#000000; stroke-width:39.3701; stroke-opacity:1; 
stroke-linecap:round; stroke-linejoin:round;">
</g>
<g style="fill:#000000; fill-opacity:0.0; 
stroke:#000000; stroke-width:59.0551; stroke-opacity:1; 
stroke-linecap:round; stroke-linejoin:round;">
<path d="M102362 4724
L102362 3937
" />
</g>
<g style="fill:#000000; fill-opacity:0.0; 
stroke:#000000; stroke-width:39.3701; stroke-opacity:1; 
stroke-linecap:round; stroke-linejoin:round;">
</g>
<g style="fill:#000000; fill-opacity:0.0; 
stroke:#000000; stroke-width:59.0551; stroke-opacity:1; 
stroke-linecap:round; stroke-linejoin:round;">
<text x="13779.5" y="4586.61"
textLength="546.494" font-size="682.415" lengthAdjust="spacingAndGlyphs"
text-anchor="start" opacity="0">1</text>
<path d="M14199 4562
L13906 4562
" />
<path d="M14052 4562
L14052 4050
L14004 4123
L13955 4172
L13906 4196
" />
</g>
<g style="fill:#000000; fill-opacity:0.0; 
stroke:#000000; stroke-width:39.3701; stroke-opacity:1; 
stroke-linecap:round; stroke-linejoin:round;">
</g>
<g style="fill:#000000; fill-opacity:0.0; 
stroke:#000000; stroke-width:59.0551; stroke-opacity:1; 
stroke-linecap:round; stroke-linejoin:round;">
<text x="33464.6" y="4586.61"
textLength="546.494" font-size="682.415" lengthAdjust="spacingAndGlyphs"
text-anchor="start" opacity="0">2</text>
<path d="M33591 4099
L33615 4074
L33664 4050
L33786 4050
L33835 4074
L33859 4099
L33884 4147
L33884 4196
L33859 4269
L33567 4562
L33884 4562
" />
</g>
<g style="fill:#000000; fill-opacity:0.0; 
stroke:#000000; stroke-width:39.3701; stroke-opacity:1; 
stroke-linecap:round; stroke-linejoin:round;">
</g>
<g style="fill:#000000; fill-opacity:0.0; 
stroke:#000000; stroke-width:59.0551; stroke-opacity:1; 
stroke-linecap:round; stroke-linejoin:round;">
<text x="53149.6" y="4586.61"
textLength="546.494" font-size="682.415" lengthAdjust="spacingAndGlyphs"
text-anchor="start" opacity="0">3</text>
<path d="M53252 4050
L53569 4050
L53398 4245
L53471 4245
L53520 4269
L53544 4294
L53569 4342
L53569 4464
L53544 4513
L53520 4537
L53471 4562
L53325 4562
L53276 4537
L53252 4513
" />
</g>
<g style="fill:#000000; fill-opacity:0.0; 
stroke:#000000; stroke-width:39.3701; stroke-opacity:1; 
stroke-linecap:round; stroke-linejoin:round;">
</g>
<g style="fill:#000000; fill-opacity:0.0; 
stroke:#000000; stroke-width:59.0551; stroke-opacity:1; 
stroke-linecap:round; stroke-linejoin:round;">
<text x="72834.6" y="4586.61"
textLength="546.494" font-size="682.415" lengthAdjust="spacingAndGlyphs"
text-anchor="start" opacity="0">4</text>
<path d="M73205 4221
L73205 4562
" />
<path d="M73083 4026
L72961 4391
L73278 4391
" />
</g>
<g style="fill:#000000; fill-opacity:0.0; 
stroke:#000000; stroke-width:39.3701; stroke-opacity:1; 
stroke-linecap:round; stroke-linejoin:round;">
</g>
<g style="fill:#000000; fill-opacity:0.0; 
stroke:#000000; stroke-width:59.0551; stroke-opacity:1; 
stroke-linecap:round; stroke-linejoin:round;">
<text x="92519.7" y="4586.61"
textLength="546.494" font-size="682.415" lengthAdjust="spacingAndGlyphs"
text-anchor="start" opacity="0">5</text>
<path d="M92914 4050
L92671 4050
L92646 4294
L92671 4269
L92719 4245
L92841 4245
L92890 4269
L92914 4294
L92939 4342
L92939 4464
L92914 4513
L92890 4537
L92841 4562
L92719 4562
L92671 4537
L92646 4513
" />
</g>
<g style="fill:#000000; fill-opacity:0.0; 
stroke:#000000; stroke-width:39.3701; stroke-opacity:1; 
stroke-linecap:round; stroke-linejoin:round;">
</g>
<g style="fill:#000000; fill-opacity:0.0; 
stroke:#000000; stroke-width:59.0551; stroke-opacity:1; 
stroke-linecap:round; stroke-linejoin:round;">
<text x="112205" y="4586.61"
textLength="546.494" font-size="682.415" lengthAdjust="spacingAndGlyphs"
text-anchor="start" opacity="0">6</text>
<path d="M112575 4050
L112477 4050
L112429 4074
L112404 4099
L112356 4172
L112331 4269
L112331 4464
L112356 4513
L112380 4537
L112429 4562
L112526 4562
L112575 4537
L112599 4513
L112624 4464
L112624 4342
L112599 4294
L112575 4269
L112526 4245
L112429 4245
L112380 4269
L112356 4294
L112331 4342
" />
</g>
<g style="fill:#000000; fill-opacity:0.0; 
stroke:#000000; stroke-width:39.3701; stroke-opacity:1; 
stroke-linecap:round; stroke-linejoin:round;">
</g>
<g style="fill:#000000; fill-opacity:0.0; 
stroke:#000000; stroke-width:59.0551; stroke-opacity:1; 
stroke-linecap:round; stroke-linejoin:round;">
<path d="M23622 77955
L23622 78742
" />
</g>
<g style="fill:#000000; fill-opacity:0.0; 
stroke:#000000; stroke-width:39.3701; stroke-opacity:1; 
stroke-linecap:round; stroke-linejoin:round;">
</g>
<g style="fill:#000000; fill-opacity:0.0; 
stroke:#000000; stroke-width:59.0551; stroke-opacity:1; 
stroke-linecap:round; stroke-linejoin:round;">
<path d="M43307 77955
L43307 78742
" />
</g>
<g style="fill:#000000; fill-opacity:0.0; 
stroke:#000000; stroke-width:39.3701; stroke-opacity:1; 
stroke-linecap:round; stroke-linejoin:round;">
</g>
<g style="fill:#000000; fill-opacity:0.0; 
stroke:#000000; stroke-width:59.0551; stroke-opacity:1; 
stroke-linecap:round; stroke-linejoin:round;">
<path d="M62992 77955
L62992 78742
" />
</g>
<g style="fill:#000000; fill-opacity:0.0; 
stroke:#000000; stroke-width:39.3701; stroke-opacity:1; 
stroke-linecap:round; stroke-linejoin:round;">
</g>
<g style="fill:#000000; fill-opacity:0.0; 
stroke:#000000; stroke-width:59.0551; stroke-opacity:1; 
stroke-linecap:round; stroke-linejoin:round;">
<path d="M82677 77955
L82677 78742
" />
</g>
<g style="fill:#000000; fill-opacity:0.0; 
stroke:#000000; stroke-width:39.3701; stroke-opacity:1; 
stroke-linecap:round; stroke-linejoin:round;">
</g>
<g style="fill:#000000; fill-opacity:0.0; 
stroke:#000000; stroke-width:59.0551; stroke-opacity:1; 
stroke-linecap:round; stroke-linejoin:round;">
<path d="M102362 77955
L102362 78742
" />
</g>
<g style="fill:#000000; fill-opacity:0.0; 
stroke:#000000; stroke-width:39.3701; stroke-opacity:1; 
stroke-linecap:round; stroke-linejoin:round;">
</g>
<g style="fill:#000000; fill-opacity:0.0; 
stroke:#000000; stroke-width:59.0551; stroke-opacity:1; 
stroke-linecap:round; stroke-linejoin:round;">
<text x="13779.5" y="78605.2"
textLength="546.494" font-size="682.415" lengthAdjust="spacingAndGlyphs"
text-anchor="start" opacity="0">1</text>
<path d="M14199 78580
L13906 78580
" />
<path d="M14052 78580
L14052 78069
L14004 78142
L13955 78190
L13906 78215
" />
</g>
<g style="fill:#000000; fill-opacity:0.0; 
stroke:#000000; stroke-width:39.3701; stroke-opacity:1; 
stroke-linecap:round; stroke-linejoin:round;">
</g>
<g style="fill:#000000; fill-opacity:0.0; 
stroke:#000000; stroke-width:59.0551; stroke-opacity:1; 
stroke-linecap:round; stroke-linejoin:round;">
<text x="33464.6" y="78605.2"
textLength="546.494" font-size="682.415" lengthAdjust="spacingAndGlyphs"
text-anchor="start" opacity="0">2</text>
<path d="M33591 78117
L33615 78093
L33664 78069
L33786 78069
L33835 78093
L33859 78117
L33884 78166
L33884 78215
L33859 78288
L33567 78580
L33884 78580
" />
</g>
<g style="fill:#000000; fill-opacity:0.0; 
stroke:#000000; stroke-width:39.3701; stroke-opacity:1; 
stroke-linecap:round; stroke-linejoin:round;">
</g>
<g style="fill:#000000; fill-opacity:0.0; 
stroke:#000000; stroke-width:59.0551; stroke-opacity:1; 
stroke-linecap:round; stroke-linejoin:round;">
<text x="53149.6" y="78605.2"
textLength="546.494" font-size="682.415" lengthAdjust="spacingAndGlyphs"
text-anchor="start" opacity="0">3</text>
<path d="M53252 78069
L53569 78069
L53398 78263
L53471 78263
L53520 78288
L53544 78312
L53569 78361
L53569 78483
L53544 78532
L53520 78556
L53471 78580
L53325 78580
L53276 78556
L53252 78532
" />
</g>
<g style="fill:#000000; fill-opacity:0.0; 
stroke:#000000; stroke-width:39.3701; stroke-opacity:1; 
stroke-linecap:round; stroke-linejoin:round;">
</g>
<g style="fill:#000000; fill-opacity:0.0; 
stroke:#000000; stroke-width:59.0551; stroke-opacity:1; 
stroke-linecap:round; stroke-linejoin:round;">
<text x="72834.6" y="78605.2"
textLength="546.494" font-size="682.415" lengthAdjust="spacingAndGlyphs"
text-anchor="start" opacity="0">4</text>
<path d="M73205 78239
L73205 78580
" />
<path d="M73083 78044
L72961 78410
L73278 78410
" />
</g>
<g style="fill:#000000; fill-opacity:0.0; 
stroke:#000000; stroke-width:39.3701; stroke-opacity:1; 
stroke-linecap:round; stroke-linejoin:round;">
</g>
<g style="fill:#000000; fill-opacity:0.0; 
stroke:#000000; stroke-width:59.0551; stroke-opacity:1; 
stroke-linecap:round; stroke-linejoin:round;">
<text x="92519.7" y="78605.2"
textLength="546.494" font-size="682.415" lengthAdjust="spacingAndGlyphs"
text-anchor="start" opacity="0">5</text>
<path d="M92914 78069
L92671 78069
L92646 78312
L92671 78288
L92719 78263
L92841 78263
L92890 78288
L92914 78312
L92939 78361
L92939 78483
L92914 78532
L92890 78556
L92841 78580
L92719 78580
L92671 78556
L92646 78532
" />
</g>
<g style="fill:#000000; fill-opacity:0.0; 
stroke:#000000; stroke-width:39.3701; stroke-opacity:1; 
stroke-linecap:round; stroke-linejoin:round;">
</g>
<g style="fill:#000000; fill-opacity:0.0; 
stroke:#000000; stroke-width:59.0551; stroke-opacity:1; 
stroke-linecap:round; stroke-linejoin:round;">
<text x="112205" y="78605.2"
textLength="546.494" font-size="682.415" lengthAdjust="spacingAndGlyphs"
text-anchor="start" opacity="0">6</text>
<path d="M112575 78069
L112477 78069
L112429 78093
L112404 78117
L112356 78190
L112331 78288
L112331 78483
L112356 78532
L112380 78556
L112429 78580
L112526 78580
L112575 78556
L112599 78532
L112624 78483
L112624 78361
L112599 78312
L112575 78288
L112526 78263
L112429 78263
L112380 78288
L112356 78312
L112331 78361
" />
</g>
<g style="fill:#000000; fill-opacity:0.0; 
stroke:#000000; stroke-width:39.3701; stroke-opacity:1; 
stroke-linecap:round; stroke-linejoin:round;">
</g>
<g style="fill:#000000; fill-opacity:0.0; 
stroke:#000000; stroke-width:59.0551; stroke-opacity:1; 
stroke-linecap:round; stroke-linejoin:round;">
<path d="M3937 23622
L4724 23622
" />
</g>
<g style="fill:#000000; fill-opacity:0.0; 
stroke:#000000; stroke-width:39.3701; stroke-opacity:1; 
stroke-linecap:round; stroke-linejoin:round;">
</g>
<g style="fill:#000000; fill-opacity:0.0; 
stroke:#000000; stroke-width:59.0551; stroke-opacity:1; 
stroke-linecap:round; stroke-linejoin:round;">
<path d="M3937 43307
L4724 43307
" />
</g>
<g style="fill:#000000; fill-opacity:0.0; 
stroke:#000000; stroke-width:39.3701; stroke-opacity:1; 
stroke-linecap:round; stroke-linejoin:round;">
</g>
<g style="fill:#000000; fill-opacity:0.0; 
stroke:#000000; stroke-width:59.0551; stroke-opacity:1; 
stroke-linecap:round; stroke-linejoin:round;">
<path d="M3937 62992
L4724 62992
" />
</g>
<g style="fill:#000000; fill-opacity:0.0; 
stroke:#000000; stroke-width:39.3701; stroke-opacity:1; 
stroke-linecap:round; stroke-linejoin:round;">
</g>
<g style="fill:#000000; fill-opacity:0.0; 
stroke:#000000; stroke-width:59.0551; stroke-opacity:1; 
stroke-linecap:round; stroke-linejoin:round;">
<text x="4330.71" y="14035.4"
textLength="497.75" font-size="682.415" lengthAdjust="spacingAndGlyphs"
text-anchor="middle" opacity="0">A</text>
<path d="M4208 13864
L4452 13864
" />
<path d="M4160 14011
L4330 13499
L4501 14011
" />
</g>
<g style="fill:#000000; fill-opacity:0.0; 
stroke:#000000; stroke-width:39.3701; stroke-opacity:1; 
stroke-linecap:round; stroke-linejoin:round;">
</g>
<g style="fill:#000000; fill-opacity:0.0; 
stroke:#000000; stroke-width:59.0551; stroke-opacity:1; 
stroke-linecap:round; stroke-linejoin:round;">
<text x="4330.71" y="33720.5"
textLength="570.866" font-size="682.415" lengthAdjust="spacingAndGlyphs"
text-anchor="middle" opacity="0">B</text>
<path d="M4367 33428
L4440 33452
L4464 33476
L4489 33525
L4489 33598
L4464 33647
L4440 33671
L4391 33696
L4196 33696
L4196 33184
L4367 33184
L4416 33208
L4440 33233
L4464 33281
L4464 33330
L4440 33379
L4416 33403
L4367 33428
L4196 33428
" />
</g>
<g style="fill:#000000; fill-opacity:0.0; 
stroke:#000000; stroke-width:39.3701; stroke-opacity:1; 
stroke-linecap:round; stroke-linejoin:round;">
</g>
<g style="fill:#000000; fill-opacity:0.0; 
stroke:#000000; stroke-width:59.0551; stroke-opacity:1; 
stroke-linecap:round; stroke-linejoin:round;">
<text x="4330.71" y="53405.5"
textLength="570.866" font-size="682.415" lengthAdjust="spacingAndGlyphs"
text-anchor="middle" opacity="0">C</text>
<path d="M4489 53332
L4464 53356
L4391 53381
L4342 53381
L4269 53356
L4221 53308
L4196 53259
L4172 53161
L4172 53088
L4196 52991
L4221 52942
L4269 52893
L4342 52869
L4391 52869
L4464 52893
L4489 52918
" />
</g>
<g style="fill:#000000; fill-opacity:0.0; 
stroke:#000000; stroke-width:39.3701; stroke-opacity:1; 
stroke-linecap:round; stroke-linejoin:round;">
</g>
<g style="fill:#000000; fill-opacity:0.0; 
stroke:#000000; stroke-width:59.0551; stroke-opacity:1; 
stroke-linecap:round; stroke-linejoin:round;">
<text x="4330.71" y="73090.6"
textLength="570.866" font-size="682.415" lengthAdjust="spacingAndGlyphs"
text-anchor="middle" opacity="0">D</text>
<path d="M4196 73066
L4196 72554
L4318 72554
L4391 72578
L4440 72627
L4464 72676
L4489 72773
L4489 72846
L4464 72944
L4440 72993
L4391 73041
L4318 73066
L4196 73066
" />
</g>
<g style="fill:#000000; fill-opacity:0.0; 
stroke:#000000; stroke-width:39.3701; stroke-opacity:1; 
stroke-linecap:round; stroke-linejoin:round;">
</g>
<g style="fill:#000000; fill-opacity:0.0; 
stroke:#000000; stroke-width:59.0551; stroke-opacity:1; 
stroke-linecap:round; stroke-linejoin:round;">
<path d="M112992 23622
L112205 23622
" />
</g>
<g style="fill:#000000; fill-opacity:0.0; 
stroke:#000000; stroke-width:39.3701; stroke-opacity:1; 
stroke-linecap:round; stroke-linejoin:round;">
</g>
<g style="fill:#000000; fill-opacity:0.0; 
stroke:#000000; stroke-width:59.0551; stroke-opacity:1; 
stroke-linecap:round; stroke-linejoin:round;">
<path d="M112992 43307
L112205 43307
" />
</g>
<g style="fill:#000000; fill-opacity:0.0; 
stroke:#000000; stroke-width:39.3701; stroke-opacity:1; 
stroke-linecap:round; stroke-linejoin:round;">
</g>
<g style="fill:#000000; fill-opacity:0.0; 
stroke:#000000; stroke-width:59.0551; stroke-opacity:1; 
stroke-linecap:round; stroke-linejoin:round;">
<path d="M112992 62992
L112205 62992
" />
</g>
<g style="fill:#000000; fill-opacity:0.0; 
stroke:#000000; stroke-width:39.3701; stroke-opacity:1; 
stroke-linecap:round; stroke-linejoin:round;">
</g>
<g style="fill:#000000; fill-opacity:0.0; 
stroke:#000000; stroke-width:59.0551; stroke-opacity:1; 
stroke-linecap:round; stroke-linejoin:round;">
<text x="112599" y="14035.4"
textLength="497.75" font-size="682.415" lengthAdjust="spacingAndGlyphs"
text-anchor="middle" opacity="0">A</text>
<path d="M112477 13864
L112721 13864
" />
<path d="M112428 14011
L112599 13499
L112769 14011
" />
</g>
<g style="fill:#000000; fill-opacity:0.0; 
stroke:#000000; stroke-width:39.3701; stroke-opacity:1; 
stroke-linecap:round; stroke-linejoin:round;">
</g>
<g style="fill:#000000; fill-opacity:0.0; 
stroke:#000000; stroke-width:59.0551; stroke-opacity:1; 
stroke-linecap:round; stroke-linejoin:round;">
<text x="112599" y="33720.5"
textLength="570.866" font-size="682.415" lengthAdjust="spacingAndGlyphs"
text-anchor="middle" opacity="0">B</text>
<path d="M112635 33428
L112708 33452
L112733 33476
L112757 33525
L112757 33598
L112733 33647
L112708 33671
L112660 33696
L112465 33696
L112465 33184
L112635 33184
L112684 33208
L112708 33233
L112733 33281
L112733 33330
L112708 33379
L112684 33403
L112635 33428
L112465 33428
" />
</g>
<g style="fill:#000000; fill-opacity:0.0; 
stroke:#000000; stroke-width:39.3701; stroke-opacity:1; 
stroke-linecap:round; stroke-linejoin:round;">
</g>
<g style="fill:#000000; fill-opacity:0.0; 
stroke:#000000; stroke-width:59.0551; stroke-opacity:1; 
stroke-linecap:round; stroke-linejoin:round;">
<text x="112599" y="53405.5"
textLength="570.866" font-size="682.415" lengthAdjust="spacingAndGlyphs"
text-anchor="middle" opacity="0">C</text>
<path d="M112757 53332
L112733 53356
L112660 53381
L112611 53381
L112538 53356
L112489 53308
L112465 53259
L112440 53161
L112440 53088
L112465 52991
L112489 52942
L112538 52893
L112611 52869
L112660 52869
L112733 52893
L112757 52918
" />
</g>
<g style="fill:#000000; fill-opacity:0.0; 
stroke:#000000; stroke-width:39.3701; stroke-opacity:1; 
stroke-linecap:round; stroke-linejoin:round;">
</g>
<g style="fill:#000000; fill-opacity:0.0; 
stroke:#000000; stroke-width:59.0551; stroke-opacity:1; 
stroke-linecap:round; stroke-linejoin:round;">
<text x="112599" y="73090.6"
textLength="570.866" font-size="682.415" lengthAdjust="spacingAndGlyphs"
text-anchor="middle" opacity="0">D</text>
<path d="M112465 73066
L112465 72554
L112587 72554
L112660 72578
L112708 72627
L112733 72676
L112757 72773
L112757 72846
L112733 72944
L112708 72993
L112660 73041
L112587 73066
L112465 73066
" />
</g>
<g style="fill:#000000; fill-opacity:0.0; 
stroke:#000000; stroke-width:39.3701; stroke-opacity:1; 
stroke-linecap:round; stroke-linejoin:round;">
</g>
<g style="fill:#000000; fill-opacity:0.0; 
stroke:#000000; stroke-width:59.0551; stroke-opacity:1; 
stroke-linecap:round; stroke-linejoin:round;">
<text x="78741" y="76321.7"
textLength="2758.72" font-size="787.402" lengthAdjust="spacingAndGlyphs"
text-anchor="start" opacity="0">Date: </text>
<path d="M78911 76293
L78911 75703
L79051 75703
L79136 75731
L79192 75787
L79220 75843
L79248 75956
L79248 76040
L79220 76153
L79192 76209
L79136 76265
L79051 76293
L78911 76293
" />
<path d="M79754 76293
L79754 75984
L79726 75928
L79670 75899
L79557 75899
L79501 75928
" />
<path d="M79754 76265
L79698 76293
L79557 76293
L79501 76265
L79473 76209
L79473 76153
L79501 76096
L79557 76068
L79698 76068
L79754 76040
" />
<path d="M79951 75899
L80176 75899
" />
<path d="M80036 75703
L80036 76209
L80064 76265
L80120 76293
L80176 76293
" />
<path d="M80598 76265
L80542 76293
L80429 76293
L80373 76265
L80345 76209
L80345 75984
L80373 75928
L80429 75899
L80542 75899
L80598 75928
L80626 75984
L80626 76040
L80345 76096
" />
<path d="M80879 76237
L80907 76265
L80879 76293
L80851 76265
L80879 76237
L80879 76293
" />
<path d="M80879 75928
L80907 75956
L80879 75984
L80851 75956
L80879 75928
L80879 75984
" />
</g>
<g style="fill:#000000; fill-opacity:0.0; 
stroke:#000000; stroke-width:39.3701; stroke-opacity:1; 
stroke-linecap:round; stroke-linejoin:round;">
</g>
<g style="fill:#000000; fill-opacity:0.0; 
stroke:#000000; stroke-width:59.0551; stroke-opacity:1; 
stroke-linecap:round; stroke-linejoin:round;">
<path d="M69685 76577
L112205 76577
" />
</g>
<g style="fill:#000000; fill-opacity:0.0; 
stroke:#000000; stroke-width:39.3701; stroke-opacity:1; 
stroke-linecap:round; stroke-linejoin:round;">
</g>
<g style="fill:#000000; fill-opacity:0.0; 
stroke:#000000; stroke-width:59.0551; stroke-opacity:1; 
stroke-linecap:round; stroke-linejoin:round;">
<text x="70079.6" y="77424.1"
textLength="18422.4" font-size="787.402" lengthAdjust="spacingAndGlyphs"
text-anchor="start" opacity="0">KiCad E.D.A.  pcbnew (5.1.12-1-10_14)</text>
<path d="M70249 77395
L70249 76805
" />
<path d="M70587 77395
L70334 77058
" />
<path d="M70587 76805
L70249 77142
" />
<path d="M70840 77395
L70840 77002
" />
<path d="M70840 76805
L70812 76833
L70840 76861
L70868 76833
L70840 76805
L70840 76861
" />
<path d="M71458 77339
L71430 77367
L71346 77395
L71290 77395
L71205 77367
L71149 77311
L71121 77255
L71093 77142
L71093 77058
L71121 76946
L71149 76889
L71205 76833
L71290 76805
L71346 76805
L71430 76833
L71458 76861
" />
<path d="M71965 77395
L71965 77086
L71937 77030
L71880 77002
L71768 77002
L71712 77030
" />
<path d="M71965 77367
L71908 77395
L71768 77395
L71712 77367
L71683 77311
L71683 77255
L71712 77199
L71768 77171
L71908 77171
L71965 77142
" />
<path d="M72499 77395
L72499 76805
" />
<path d="M72499 77367
L72443 77395
L72330 77395
L72274 77367
L72246 77339
L72218 77283
L72218 77114
L72246 77058
L72274 77030
L72330 77002
L72443 77002
L72499 77030
" />
<path d="M73230 77086
L73427 77086
" />
<path d="M73511 77395
L73230 77395
L73230 76805
L73511 76805
" />
<path d="M73764 77339
L73793 77367
L73764 77395
L73736 77367
L73764 77339
L73764 77395
" />
<path d="M74046 77395
L74046 76805
L74186 76805
L74271 76833
L74327 76889
L74355 76946
L74383 77058
L74383 77142
L74355 77255
L74327 77311
L74271 77367
L74186 77395
L74046 77395
" />
<path d="M74636 77339
L74664 77367
L74636 77395
L74608 77367
L74636 77339
L74636 77395
" />
<path d="M74889 77227
L75171 77227
" />
<path d="M74833 77395
L75030 76805
L75227 77395
" />
<path d="M75424 77339
L75452 77367
L75424 77395
L75395 77367
L75424 77339
L75424 77395
" />
<path d="M76605 77002
L76605 77592
" />
<path d="M76605 77030
L76661 77002
L76773 77002
L76830 77030
L76858 77058
L76886 77114
L76886 77283
L76858 77339
L76830 77367
L76773 77395
L76661 77395
L76605 77367
" />
<path d="M77392 77367
L77336 77395
L77223 77395
L77167 77367
L77139 77339
L77111 77283
L77111 77114
L77139 77058
L77167 77030
L77223 77002
L77336 77002
L77392 77030
" />
<path d="M77645 77395
L77645 76805
" />
<path d="M77645 77030
L77701 77002
L77814 77002
L77870 77030
L77898 77058
L77926 77114
L77926 77283
L77898 77339
L77870 77367
L77814 77395
L77701 77395
L77645 77367
" />
<path d="M78180 77002
L78180 77395
" />
<path d="M78180 77058
L78208 77030
L78264 77002
L78348 77002
L78404 77030
L78433 77086
L78433 77395
" />
<path d="M78939 77367
L78883 77395
L78770 77395
L78714 77367
L78686 77311
L78686 77086
L78714 77030
L78770 77002
L78883 77002
L78939 77030
L78967 77086
L78967 77142
L78686 77199
" />
<path d="M79164 77002
L79276 77395
L79389 77114
L79501 77395
L79614 77002
" />
<path d="M80457 77620
L80429 77592
L80373 77508
L80345 77452
L80317 77367
L80289 77227
L80289 77114
L80317 76974
L80345 76889
L80373 76833
L80429 76749
L80457 76721
" />
<path d="M80964 76805
L80682 76805
L80654 77086
L80682 77058
L80739 77030
L80879 77030
L80935 77058
L80964 77086
L80992 77142
L80992 77283
L80964 77339
L80935 77367
L80879 77395
L80739 77395
L80682 77367
L80654 77339
" />
<path d="M81245 77339
L81273 77367
L81245 77395
L81217 77367
L81245 77339
L81245 77395
" />
<path d="M81835 77395
L81498 77395
" />
<path d="M81667 77395
L81667 76805
L81610 76889
L81554 76946
L81498 76974
" />
<path d="M82088 77339
L82117 77367
L82088 77395
L82060 77367
L82088 77339
L82088 77395
" />
<path d="M82679 77395
L82341 77395
" />
<path d="M82510 77395
L82510 76805
L82454 76889
L82398 76946
L82341 76974
" />
<path d="M82904 76861
L82932 76833
L82988 76805
L83129 76805
L83185 76833
L83213 76861
L83241 76917
L83241 76974
L83213 77058
L82876 77395
L83241 77395
" />
<path d="M83494 77171
L83944 77171
" />
<path d="M84535 77395
L84197 77395
" />
<path d="M84366 77395
L84366 76805
L84310 76889
L84254 76946
L84197 76974
" />
<path d="M84788 77171
L85238 77171
" />
<path d="M85829 77395
L85491 77395
" />
<path d="M85660 77395
L85660 76805
L85604 76889
L85547 76946
L85491 76974
" />
<path d="M86194 76805
L86250 76805
L86307 76833
L86335 76861
L86363 76917
L86391 77030
L86391 77171
L86363 77283
L86335 77339
L86307 77367
L86250 77395
L86194 77395
L86138 77367
L86110 77339
L86082 77283
L86054 77171
L86054 77030
L86082 76917
L86110 76861
L86138 76833
L86194 76805
" />
<path d="M86503 77452
L86953 77452
" />
<path d="M87403 77395
L87066 77395
" />
<path d="M87235 77395
L87235 76805
L87178 76889
L87122 76946
L87066 76974
" />
<path d="M87910 77002
L87910 77395
" />
<path d="M87769 76777
L87628 77199
L87994 77199
" />
<path d="M88163 77620
L88191 77592
L88247 77508
L88275 77452
L88303 77367
L88331 77227
L88331 77114
L88303 76974
L88275 76889
L88247 76833
L88191 76749
L88163 76721
" />
</g>
<g style="fill:#000000; fill-opacity:0.0; 
stroke:#000000; stroke-width:39.3701; stroke-opacity:1; 
stroke-linecap:round; stroke-linejoin:round;">
</g>
<g style="fill:#000000; fill-opacity:0.0; 
stroke:#000000; stroke-width:59.0551; stroke-opacity:1; 
stroke-linecap:round; stroke-linejoin:round;">
<path d="M69685 75396
L112205 75396
" />
</g>
<g style="fill:#000000; fill-opacity:0.0; 
stroke:#000000; stroke-width:39.3701; stroke-opacity:1; 
stroke-linecap:round; stroke-linejoin:round;">
</g>
<g style="fill:#000000; fill-opacity:0.0; 
stroke:#000000; stroke-width:118.11; stroke-opacity:1; 
stroke-linecap:round; stroke-linejoin:round;">
<text x="103544" y="76321.7"
textLength="2336.9" font-size="787.402" lengthAdjust="spacingAndGlyphs"
text-anchor="start" opacity="0">Rev: </text>
<path d="M104099 76293
L103902 76012
" />
<path d="M103761 76293
L103761 75703
L103986 75703
L104042 75731
L104070 75759
L104099 75815
L104099 75899
L104070 75956
L104042 75984
L103986 76012
L103761 76012
" />
<path d="M104577 76265
L104520 76293
L104408 76293
L104352 76265
L104323 76209
L104323 75984
L104352 75928
L104408 75899
L104520 75899
L104577 75928
L104605 75984
L104605 76040
L104323 76096
" />
<path d="M104802 75899
L104942 76293
L105083 75899
" />
<path d="M105308 76237
L105336 76265
L105308 76293
L105280 76265
L105308 76237
L105308 76293
" />
<path d="M105308 75928
L105336 75956
L105308 75984
L105280 75956
L105308 75928
L105308 75984
" />
</g>
<g style="fill:#000000; fill-opacity:0.0; 
stroke:#000000; stroke-width:39.3701; stroke-opacity:1; 
stroke-linecap:round; stroke-linejoin:round;">
</g>
<g style="fill:#000000; fill-opacity:0.0; 
stroke:#000000; stroke-width:59.0551; stroke-opacity:1; 
stroke-linecap:round; stroke-linejoin:round;">
<text x="70079.6" y="76321.7"
textLength="3781.21" font-size="787.402" lengthAdjust="spacingAndGlyphs"
text-anchor="start" opacity="0">Size: A4</text>
<path d="M70221 76265
L70305 76293
L70446 76293
L70502 76265
L70530 76237
L70559 76181
L70559 76124
L70530 76068
L70502 76040
L70446 76012
L70334 75984
L70277 75956
L70249 75928
L70221 75871
L70221 75815
L70249 75759
L70277 75731
L70334 75703
L70474 75703
L70559 75731
" />
<path d="M70812 76293
L70812 75899
" />
<path d="M70812 75703
L70784 75731
L70812 75759
L70840 75731
L70812 75703
L70812 75759
" />
<path d="M71037 75899
L71346 75899
L71037 76293
L71346 76293
" />
<path d="M71796 76265
L71740 76293
L71627 76293
L71571 76265
L71543 76209
L71543 75984
L71571 75928
L71627 75899
L71740 75899
L71796 75928
L71824 75984
L71824 76040
L71543 76096
" />
<path d="M72077 76237
L72105 76265
L72077 76293
L72049 76265
L72077 76237
L72077 76293
" />
<path d="M72077 75928
L72105 75956
L72077 75984
L72049 75956
L72077 75928
L72077 75984
" />
<path d="M72780 76124
L73061 76124
" />
<path d="M72724 76293
L72921 75703
L73118 76293
" />
<path d="M73568 75899
L73568 76293
" />
<path d="M73427 75674
L73286 76096
L73652 76096
" />
</g>
<g style="fill:#000000; fill-opacity:0.0; 
stroke:#000000; stroke-width:39.3701; stroke-opacity:1; 
stroke-linecap:round; stroke-linejoin:round;">
</g>
<g style="fill:#000000; fill-opacity:0.0; 
stroke:#000000; stroke-width:59.0551; stroke-opacity:1; 
stroke-linecap:round; stroke-linejoin:round;">
<text x="103544" y="77424.1"
textLength="3349.27" font-size="787.402" lengthAdjust="spacingAndGlyphs"
text-anchor="start" opacity="0">Id: 1/1</text>
<path d="M103714 77395
L103714 76805
" />
<path d="M104248 77395
L104248 76805
" />
<path d="M104248 77367
L104192 77395
L104079 77395
L104023 77367
L103995 77339
L103967 77283
L103967 77114
L103995 77058
L104023 77030
L104079 77002
L104192 77002
L104248 77030
" />
<path d="M104529 77339
L104557 77367
L104529 77395
L104501 77367
L104529 77339
L104529 77395
" />
<path d="M104529 77030
L104557 77058
L104529 77086
L104501 77058
L104529 77030
L104529 77086
" />
<path d="M105570 77395
L105232 77395
" />
<path d="M105401 77395
L105401 76805
L105345 76889
L105289 76946
L105232 76974
" />
<path d="M106245 76777
L105739 77536
" />
<path d="M106751 77395
L106413 77395
" />
<path d="M106582 77395
L106582 76805
L106526 76889
L106470 76946
L106413 76974
" />
</g>
<g style="fill:#000000; fill-opacity:0.0; 
stroke:#000000; stroke-width:39.3701; stroke-opacity:1; 
stroke-linecap:round; stroke-linejoin:round;">
</g>
<g style="fill:#000000; fill-opacity:0.0; 
stroke:#000000; stroke-width:59.0551; stroke-opacity:1; 
stroke-linecap:round; stroke-linejoin:round;">
<path d="M69685 73821
L112205 73821
" />
</g>
<g style="fill:#000000; fill-opacity:0.0; 
stroke:#000000; stroke-width:39.3701; stroke-opacity:1; 
stroke-linecap:round; stroke-linejoin:round;">
</g>
<g style="fill:#000000; fill-opacity:0.0; 
stroke:#000000; stroke-width:157.48; stroke-opacity:1; 
stroke-linecap:round; stroke-linejoin:round;">
<text x="70079.6" y="74924.1"
textLength="3701.14" font-size="1049.87" lengthAdjust="spacingAndGlyphs"
text-anchor="start" opacity="0">Title: </text>
<path d="M70360 74099
L70810 74099
" />
<path d="M70486 74886
L70585 74099
" />
<path d="M70974 74886
L71039 74361
" />
<path d="M71072 74099
L71030 74136
L71063 74174
L71105 74136
L71072 74099
L71063 74174
" />
<path d="M71302 74361
L71602 74361
" />
<path d="M71447 74099
L71363 74774
L71391 74849
L71461 74886
L71536 74886
" />
<path d="M71911 74886
L71841 74849
L71813 74774
L71897 74099
" />
<path d="M72516 74849
L72436 74886
L72286 74886
L72216 74849
L72187 74774
L72225 74474
L72272 74399
L72352 74361
L72501 74361
L72572 74399
L72600 74474
L72591 74549
L72206 74624
" />
<path d="M72895 74811
L72928 74849
L72886 74886
L72853 74849
L72895 74811
L72886 74886
" />
<path d="M72947 74399
L72980 74436
L72937 74474
L72905 74436
L72947 74399
L72937 74474
" />
</g>
<g style="fill:#000000; fill-opacity:0.0; 
stroke:#000000; stroke-width:39.3701; stroke-opacity:1; 
stroke-linecap:round; stroke-linejoin:round;">
</g>
<g style="fill:#000000; fill-opacity:0.0; 
stroke:#000000; stroke-width:59.0551; stroke-opacity:1; 
stroke-linecap:round; stroke-linejoin:round;">
<text x="70079.6" y="73408.3"
textLength="15446.6" font-size="787.402" lengthAdjust="spacingAndGlyphs"
text-anchor="start" opacity="0">File: MicroDexed-Touch.kicad_pcb</text>
<path d="M70446 73070
L70249 73070
" />
<path d="M70249 73380
L70249 72789
L70530 72789
" />
<path d="M70755 73380
L70755 72986
" />
<path d="M70755 72789
L70727 72817
L70755 72845
L70784 72817
L70755 72789
L70755 72845
" />
<path d="M71121 73380
L71065 73352
L71037 73295
L71037 72789
" />
<path d="M71571 73352
L71515 73380
L71402 73380
L71346 73352
L71318 73295
L71318 73070
L71346 73014
L71402 72986
L71515 72986
L71571 73014
L71599 73070
L71599 73127
L71318 73183
" />
<path d="M71852 73323
L71880 73352
L71852 73380
L71824 73352
L71852 73323
L71852 73380
" />
<path d="M71852 73014
L71880 73042
L71852 73070
L71824 73042
L71852 73014
L71852 73070
" />
<path d="M72583 73380
L72583 72789
L72780 73211
L72977 72789
L72977 73380
" />
<path d="M73258 73380
L73258 72986
" />
<path d="M73258 72789
L73230 72817
L73258 72845
L73286 72817
L73258 72789
L73258 72845
" />
<path d="M73793 73352
L73736 73380
L73624 73380
L73568 73352
L73539 73323
L73511 73267
L73511 73099
L73539 73042
L73568 73014
L73624 72986
L73736 72986
L73793 73014
" />
<path d="M74046 73380
L74046 72986
" />
<path d="M74046 73099
L74074 73042
L74102 73014
L74158 72986
L74214 72986
" />
<path d="M74496 73380
L74439 73352
L74411 73323
L74383 73267
L74383 73099
L74411 73042
L74439 73014
L74496 72986
L74580 72986
L74636 73014
L74664 73042
L74692 73099
L74692 73267
L74664 73323
L74636 73352
L74580 73380
L74496 73380
" />
<path d="M74946 73380
L74946 72789
L75086 72789
L75171 72817
L75227 72874
L75255 72930
L75283 73042
L75283 73127
L75255 73239
L75227 73295
L75171 73352
L75086 73380
L74946 73380
" />
<path d="M75761 73352
L75705 73380
L75592 73380
L75536 73352
L75508 73295
L75508 73070
L75536 73014
L75592 72986
L75705 72986
L75761 73014
L75789 73070
L75789 73127
L75508 73183
" />
<path d="M75986 73380
L76295 72986
" />
<path d="M75986 72986
L76295 73380
" />
<path d="M76745 73352
L76689 73380
L76577 73380
L76520 73352
L76492 73295
L76492 73070
L76520 73014
L76577 72986
L76689 72986
L76745 73014
L76773 73070
L76773 73127
L76492 73183
" />
<path d="M77280 73380
L77280 72789
" />
<path d="M77280 73352
L77223 73380
L77111 73380
L77055 73352
L77027 73323
L76998 73267
L76998 73099
L77027 73042
L77055 73014
L77111 72986
L77223 72986
L77280 73014
" />
<path d="M77561 73155
L78011 73155
" />
<path d="M78208 72789
L78545 72789
" />
<path d="M78376 73380
L78376 72789
" />
<path d="M78826 73380
L78770 73352
L78742 73323
L78714 73267
L78714 73099
L78742 73042
L78770 73014
L78826 72986
L78911 72986
L78967 73014
L78995 73042
L79023 73099
L79023 73267
L78995 73323
L78967 73352
L78911 73380
L78826 73380
" />
<path d="M79529 72986
L79529 73380
" />
<path d="M79276 72986
L79276 73295
L79304 73352
L79361 73380
L79445 73380
L79501 73352
L79529 73323
" />
<path d="M80064 73352
L80007 73380
L79895 73380
L79839 73352
L79811 73323
L79782 73267
L79782 73099
L79811 73042
L79839 73014
L79895 72986
L80007 72986
L80064 73014
" />
<path d="M80317 73380
L80317 72789
" />
<path d="M80570 73380
L80570 73070
L80542 73014
L80485 72986
L80401 72986
L80345 73014
L80317 73042
" />
<path d="M80851 73323
L80879 73352
L80851 73380
L80823 73352
L80851 73323
L80851 73380
" />
<path d="M81132 73380
L81132 72789
" />
<path d="M81188 73155
L81357 73380
" />
<path d="M81357 72986
L81132 73211
" />
<path d="M81610 73380
L81610 72986
" />
<path d="M81610 72789
L81582 72817
L81610 72845
L81638 72817
L81610 72789
L81610 72845
" />
<path d="M82145 73352
L82088 73380
L81976 73380
L81920 73352
L81892 73323
L81863 73267
L81863 73099
L81892 73042
L81920 73014
L81976 72986
L82088 72986
L82145 73014
" />
<path d="M82651 73380
L82651 73070
L82623 73014
L82566 72986
L82454 72986
L82398 73014
" />
<path d="M82651 73352
L82595 73380
L82454 73380
L82398 73352
L82370 73295
L82370 73239
L82398 73183
L82454 73155
L82595 73155
L82651 73127
" />
<path d="M83185 73380
L83185 72789
" />
<path d="M83185 73352
L83129 73380
L83016 73380
L82960 73352
L82932 73323
L82904 73267
L82904 73099
L82932 73042
L82960 73014
L83016 72986
L83129 72986
L83185 73014
" />
<path d="M83326 73436
L83776 73436
" />
<path d="M83916 72986
L83916 73577
" />
<path d="M83916 73014
L83973 72986
L84085 72986
L84141 73014
L84169 73042
L84197 73099
L84197 73267
L84169 73323
L84141 73352
L84085 73380
L83973 73380
L83916 73352
" />
<path d="M84704 73352
L84647 73380
L84535 73380
L84479 73352
L84451 73323
L84422 73267
L84422 73099
L84451 73042
L84479 73014
L84535 72986
L84647 72986
L84704 73014
" />
<path d="M84957 73380
L84957 72789
" />
<path d="M84957 73014
L85013 72986
L85126 72986
L85182 73014
L85210 73042
L85238 73099
L85238 73267
L85210 73323
L85182 73352
L85126 73380
L85013 73380
L84957 73352
" />
</g>
<g style="fill:#000000; fill-opacity:0.0; 
stroke:#000000; stroke-width:39.3701; stroke-opacity:1; 
stroke-linecap:round; stroke-linejoin:round;">
</g>
<g style="fill:#000000; fill-opacity:0.0; 
stroke:#000000; stroke-width:59.0551; stroke-opacity:1; 
stroke-linecap:round; stroke-linejoin:round;">
<path d="M69685 71459
L112205 71459
" />
</g>
<g style="fill:#000000; fill-opacity:0.0; 
stroke:#000000; stroke-width:39.3701; stroke-opacity:1; 
stroke-linecap:round; stroke-linejoin:round;">
</g>
<g style="fill:#000000; fill-opacity:0.0; 
stroke:#000000; stroke-width:59.0551; stroke-opacity:1; 
stroke-linecap:round; stroke-linejoin:round;">
<text x="70079.6" y="72345.4"
textLength="3236.78" font-size="787.402" lengthAdjust="spacingAndGlyphs"
text-anchor="start" opacity="0">Sheet: </text>
<path d="M70221 72289
L70305 72317
L70446 72317
L70502 72289
L70530 72260
L70559 72204
L70559 72148
L70530 72092
L70502 72064
L70446 72036
L70334 72007
L70277 71979
L70249 71951
L70221 71895
L70221 71839
L70249 71782
L70277 71754
L70334 71726
L70474 71726
L70559 71754
" />
<path d="M70812 72317
L70812 71726
" />
<path d="M71065 72317
L71065 72007
L71037 71951
L70980 71923
L70896 71923
L70840 71951
L70812 71979
" />
<path d="M71571 72289
L71515 72317
L71402 72317
L71346 72289
L71318 72232
L71318 72007
L71346 71951
L71402 71923
L71515 71923
L71571 71951
L71599 72007
L71599 72064
L71318 72120
" />
<path d="M72077 72289
L72021 72317
L71908 72317
L71852 72289
L71824 72232
L71824 72007
L71852 71951
L71908 71923
L72021 71923
L72077 71951
L72105 72007
L72105 72064
L71824 72120
" />
<path d="M72274 71923
L72499 71923
" />
<path d="M72358 71726
L72358 72232
L72386 72289
L72443 72317
L72499 72317
" />
<path d="M72696 72260
L72724 72289
L72696 72317
L72668 72289
L72696 72260
L72696 72317
" />
<path d="M72696 71951
L72724 71979
L72696 72007
L72668 71979
L72696 71951
L72696 72007
" />
</g>
<g style="fill:#000000; fill-opacity:0.0; 
stroke:#000000; stroke-width:39.3701; stroke-opacity:1; 
stroke-linecap:round; stroke-linejoin:round;">
</g>
<g style="fill:#000000; fill-opacity:0.0; 
stroke:#000000; stroke-width:59.0551; stroke-opacity:1; 
stroke-linecap:round; stroke-linejoin:round;">
<path d="M77559 75396
L77559 76577
" />
</g>
<g style="fill:#000000; fill-opacity:0.0; 
stroke:#000000; stroke-width:39.3701; stroke-opacity:1; 
stroke-linecap:round; stroke-linejoin:round;">
</g>
<g style="fill:#000000; fill-opacity:0.0; 
stroke:#000000; stroke-width:59.0551; stroke-opacity:1; 
stroke-linecap:round; stroke-linejoin:round;">
<path d="M102756 75396
L102756 77955
" />
</g>
<g style="fill:#848484; fill-opacity:0.0; 
stroke:#848484; stroke-width:59.0551; stroke-opacity:1; 
stroke-linecap:round; stroke-linejoin:round;">
</g>
<g style="fill:#848484; fill-opacity:0.0; 
stroke:#848484; stroke-width:39.3701; stroke-opacity:1; 
stroke-linecap:round; stroke-linejoin:round;">
<path d="M65742 37007
L66726 37007
" />
<path d="M66726 37007
L66726 34527
" />
<path d="M66726 34527
L65742 34527
" />
<path d="M65742 34527
L65742 37007
" />
<path d="M66234 37267
L66234 37007
" />
<path d="M66234 34267
L66234 34527
" />
<path d="M67990 34527
L67005 34527
" />
<path d="M67005 34527
L67005 37007
" />
<path d="M67005 37007
L67990 37007
" />
<path d="M67990 37007
L67990 34527
" />
<path d="M67498 34267
L67498 34527
" />
<path d="M67498 37267
L67498 37007
" />
<path d="M96096 28480
L96096 28220
" />
<path d="M96096 25480
L96096 25740
" />
<path d="M96588 28220
L96588 25740
" />
<path d="M95604 28220
L96588 28220
" />
<path d="M95604 25740
L95604 28220
" />
<path d="M96588 25740
L95604 25740
" />
<path d="M69374 31674
L69625 31674
" />
<path d="M93653 31674
L93905 31674
" />
</g>
<g style="fill:#848484; fill-opacity:0.0; 
stroke:#848484; stroke-width:50; stroke-opacity:1; 
stroke-linecap:round; stroke-linejoin:round;">
<path d="M103814 26936
L102436 26936
" />
<path d="M103814 29298
L103814 26936
" />
<path d="M102436 29298
L103814 29298
" />
</g>
<g style="fill:#848484; fill-opacity:0.0; 
stroke:#848484; stroke-width:78.7402; stroke-opacity:1; 
stroke-linecap:round; stroke-linejoin:round;">
<circle cx="102754" cy="29660.9" r="39.3701" /> 
</g>
<g style="fill:#848484; fill-opacity:0.0; 
stroke:#848484; stroke-width:50; stroke-opacity:1; 
stroke-linecap:round; stroke-linejoin:round;">
<path d="M96924 25952
L102436 25952
" />
<path d="M102436 26936
L102436 25952
" />
<path d="M102436 29298
L102436 26936
" />
<path d="M102436 30479
L102436 29298
" />
<path d="M96924 30479
L96924 25952
" />
<path d="M102436 30479
L96924 30479
" />
<path d="M103814 21592
L102436 21592
" />
<path d="M103814 23954
L103814 21592
" />
<path d="M102436 23954
L103814 23954
" />
</g>
<g style="fill:#848484; fill-opacity:0.0; 
stroke:#848484; stroke-width:78.7402; stroke-opacity:1; 
stroke-linecap:round; stroke-linejoin:round;">
<circle cx="102754" cy="24316.5" r="39.3701" /> 
</g>
<g style="fill:#848484; fill-opacity:0.0; 
stroke:#848484; stroke-width:50; stroke-opacity:1; 
stroke-linecap:round; stroke-linejoin:round;">
<path d="M96924 20607
L102436 20607
" />
<path d="M102436 21592
L102436 20607
" />
<path d="M102436 23954
L102436 21592
" />
<path d="M102436 25135
L102436 23954
" />
<path d="M96924 25135
L96924 20607
" />
<path d="M102436 25135
L96924 25135
" />
<path d="M103814 16257
L102436 16257
" />
<path d="M103814 18619
L103814 16257
" />
<path d="M102436 18619
L103814 18619
" />
</g>
<g style="fill:#848484; fill-opacity:0.0; 
stroke:#848484; stroke-width:78.7402; stroke-opacity:1; 
stroke-linecap:round; stroke-linejoin:round;">
<circle cx="102754" cy="18981.8" r="39.3701" /> 
</g>
<g style="fill:#848484; fill-opacity:0.0; 
stroke:#848484; stroke-width:50; stroke-opacity:1; 
stroke-linecap:round; stroke-linejoin:round;">
<path d="M96924 15273
L102436 15273
" />
<path d="M102436 16257
L102436 15273
" />
<path d="M102436 18619
L102436 16257
" />
<path d="M102436 19800
L102436 18619
" />
<path d="M96924 19800
L96924 15273
" />
<path d="M102436 19800
L96924 19800
" />
</g>
<g style="fill:#848484; fill-opacity:0.0; 
stroke:#848484; stroke-width:39.3701; stroke-opacity:1; 
stroke-linecap:round; stroke-linejoin:round;">
<path d="M97800 13940
L97406 14333
" />
<path d="M98193 14333
L97800 13940
" />
<path d="M99000 8443
L99256 8443
" />
<path d="M99000 8443
L99000 14333
" />
<path d="M99000 9790
L93843 9790
" />
<path d="M93587 8443
L93843 8443
" />
<path d="M93587 8325
L93587 8443
" />
<path d="M99256 8325
L93587 8325
" />
<path d="M99256 8443
L99256 8325
" />
<path d="M93843 14333
L93843 8443
" />
<path d="M99000 14333
L93843 14333
" />
<path d="M66600 14358
L67350 14358
" />
<path d="M67350 14358
L67600 14608
" />
<path d="M67600 14608
L67600 28358
" />
<path d="M67600 28358
L66600 28358
" />
<path d="M66600 28358
L66600 14358
" />
<path d="M103903 12196
L102619 12196
" />
<path d="M103903 13574
L102619 13574
" />
<path d="M103903 12196
L103903 13574
" />
<path d="M99946 14244
L101261 14244
" />
<path d="M99946 11409
L99946 11527
" />
<path d="M101261 11527
L101261 14244
" />
<path d="M99946 14362
L102619 14362
" />
<path d="M102619 11409
L102619 14362
" />
<path d="M99946 11409
L102619 11409
" />
<path d="M99946 14244
L99946 14362
" />
<path d="M99946 11527
L101261 11527
" />
<path d="M68937 7276
L68937 8560
" />
<path d="M70314 7276
L70314 8560
" />
<path d="M68937 7276
L70314 7276
" />
<path d="M70984 11233
L70984 9918
" />
<path d="M68149 11233
L68267 11233
" />
<path d="M68267 9918
L70984 9918
" />
<path d="M71102 11233
L71102 8560
" />
<path d="M68149 8560
L71102 8560
" />
<path d="M68149 11233
L68149 8560
" />
<path d="M70984 11233
L71102 11233
" />
<path d="M68267 11233
L68267 9918
" />
<path d="M100125 34862
L101043 34862
" />
<circle cx="100585" cy="34271.7" r="590.551" /> 
<path d="M101043 34862.4 A748.031 748.031 0.0 1 0 100126 34862.2" />
<circle cx="100585" cy="36830.7" r="590.551" /> 
<path d="M100125 37421
L101043 37421
" />
<path d="M101043 37421.5 A748.031 748.031 0.0 1 0 100126 37421.3" />
</g>
<g style="fill:#848484; fill-opacity:0.0; 
stroke:#848484; stroke-width:50; stroke-opacity:1; 
stroke-linecap:round; stroke-linejoin:round;">
<path d="M74324 34299
L69127 34299
" />
<path d="M69127 34299
L69127 39181
" />
<path d="M69127 39181
L74324 39181
" />
<path d="M74324 39181
L74324 34299
" />
</g>
<g style="fill:#848484; fill-opacity:0.0; 
stroke:#848484; stroke-width:78.7402; stroke-opacity:1; 
stroke-linecap:round; stroke-linejoin:round;">
<circle cx="75063" cy="35165.4" r="39.3701" /> 
</g>
<g style="fill:#848484; fill-opacity:0.0; 
stroke:#848484; stroke-width:50; stroke-opacity:1; 
stroke-linecap:round; stroke-linejoin:round;">
<circle cx="71726.4" cy="36740.2" r="1181.1" /> 
<circle cx="96301.2" cy="36748" r="1181.1" /> 
</g>
<g style="fill:#848484; fill-opacity:0.0; 
stroke:#848484; stroke-width:78.7402; stroke-opacity:1; 
stroke-linecap:round; stroke-linejoin:round;">
<circle cx="99637.8" cy="35173.2" r="39.3701" /> 
</g>
<g style="fill:#848484; fill-opacity:0.0; 
stroke:#848484; stroke-width:50; stroke-opacity:1; 
stroke-linecap:round; stroke-linejoin:round;">
<path d="M98899 39188
L98899 34307
" />
<path d="M93702 39188
L98899 39188
" />
<path d="M93702 34307
L93702 39188
" />
<path d="M98899 34307
L93702 34307
" />
<g >
</g>
<g >
</g>
<g >
</g>
<g >
</g>
<g >
</g>
<g >
</g>
<g >
</g>
<g >
</g>
<g >
</g>
<g >
</g>
<g >
</g>
<g >
</g>
<g >
</g>
<g >
</g>
<g >
</g>
<g >
</g>
<g >
</g>
<g >
</g>
<g >
</g>
<g >
</g>
<g >
</g>
<g >
</g>
<g >
</g>
<g >
</g>
</g>
<g style="fill:#848484; fill-opacity:0.0; 
stroke:#848484; stroke-width:50; stroke-opacity:1; 
stroke-linecap:round; stroke-linejoin:round;">
</g>
<g style="fill:#848484; fill-opacity:0.0; 
stroke:#848484; stroke-width:59.0551; stroke-opacity:1; 
stroke-linecap:round; stroke-linejoin:round;">
<g transform="rotate(-90 67753.9 35763.8)">
<text x="67753.9" y="35960.6"
textLength="1183.91" font-size="524.934" lengthAdjust="spacingAndGlyphs"
text-anchor="middle" opacity="0">100</text>
</g>
<path d="M67932 36026
L67932 36251
" />
<path d="M67932 36138
L67538 36138
L67594 36176
L67632 36213
L67650 36251
" />
<path d="M67538 35782
L67538 35745
L67557 35707
L67575 35688
L67613 35670
L67688 35651
L67782 35651
L67857 35670
L67894 35688
L67913 35707
L67932 35745
L67932 35782
L67913 35820
L67894 35838
L67857 35857
L67782 35876
L67688 35876
L67613 35857
L67575 35838
L67557 35820
L67538 35782
" />
<path d="M67538 35407
L67538 35370
L67557 35332
L67575 35313
L67613 35295
L67688 35276
L67782 35276
L67857 35295
L67894 35313
L67913 35332
L67932 35370
L67932 35407
L67913 35445
L67894 35463
L67857 35482
L67782 35501
L67688 35501
L67613 35482
L67575 35463
L67557 35445
L67538 35407
" />
<g transform="rotate(-90 66021.7 35748)">
<text x="66021.7" y="35944.9"
textLength="1220.38" font-size="524.934" lengthAdjust="spacingAndGlyphs"
text-anchor="middle" opacity="0">R11</text>
</g>
<path d="M66199 36001
L66012 36132
" />
<path d="M66199 36226
L65806 36226
L65806 36076
L65824 36038
L65843 36019
L65881 36001
L65937 36001
L65974 36019
L65993 36038
L66012 36076
L66012 36226
" />
<path d="M66199 35626
L66199 35851
" />
<path d="M66199 35738
L65806 35738
L65862 35776
L65899 35813
L65918 35851
" />
<path d="M66199 35251
L66199 35476
" />
<path d="M66199 35363
L65806 35363
L65862 35401
L65899 35438
L65918 35476
" />
<g transform="rotate(-90 66517.7 35740.2)">
<text x="66517.7" y="35937"
textLength="1220.38" font-size="524.934" lengthAdjust="spacingAndGlyphs"
text-anchor="middle" opacity="0">10K</text>
</g>
<path d="M66695 36011
L66695 36236
" />
<path d="M66695 36124
L66302 36124
L66358 36161
L66395 36199
L66414 36236
" />
<path d="M66302 35768
L66302 35730
L66320 35693
L66339 35674
L66377 35655
L66452 35637
L66545 35637
L66620 35655
L66658 35674
L66677 35693
L66695 35730
L66695 35768
L66677 35805
L66658 35824
L66620 35843
L66545 35862
L66452 35862
L66377 35843
L66339 35824
L66320 35805
L66302 35768
" />
<path d="M66695 35468
L66302 35468
" />
<path d="M66695 35243
L66470 35412
" />
<path d="M66302 35243
L66527 35468
" />
<g transform="rotate(-90 67238.2 35748)">
<text x="67238.2" y="35944.9"
textLength="1220.38" font-size="524.934" lengthAdjust="spacingAndGlyphs"
text-anchor="middle" opacity="0">R19</text>
</g>
<path d="M67416 36001
L67228 36132
" />
<path d="M67416 36226
L67022 36226
L67022 36076
L67041 36038
L67060 36019
L67097 36001
L67153 36001
L67191 36019
L67210 36038
L67228 36076
L67228 36226
" />
<path d="M67416 35626
L67416 35851
" />
<path d="M67416 35738
L67022 35738
L67078 35776
L67116 35813
L67135 35851
" />
<path d="M67416 35438
L67416 35363
L67397 35326
L67378 35307
L67322 35269
L67247 35251
L67097 35251
L67060 35269
L67041 35288
L67022 35326
L67022 35401
L67041 35438
L67060 35457
L67097 35476
L67191 35476
L67228 35457
L67247 35438
L67266 35401
L67266 35326
L67247 35288
L67228 35269
L67191 35251
" />
<g transform="rotate(-90 96096.5 26838.6)">
<text x="96096.5" y="27035.4"
textLength="1201.63" font-size="524.934" lengthAdjust="spacingAndGlyphs"
text-anchor="middle" opacity="0">680</text>
</g>
<path d="M95880 27138
L95880 27213
L95899 27251
L95918 27269
L95974 27307
L96049 27326
L96199 27326
L96237 27307
L96255 27288
L96274 27251
L96274 27176
L96255 27138
L96237 27119
L96199 27101
L96105 27101
L96068 27119
L96049 27138
L96030 27176
L96030 27251
L96049 27288
L96068 27307
L96105 27326
" />
<path d="M96049 26876
L96030 26913
L96012 26932
L95974 26951
L95955 26951
L95918 26932
L95899 26913
L95880 26876
L95880 26801
L95899 26763
L95918 26744
L95955 26726
L95974 26726
L96012 26744
L96030 26763
L96049 26801
L96049 26876
L96068 26913
L96087 26932
L96124 26951
L96199 26951
L96237 26932
L96255 26913
L96274 26876
L96274 26801
L96255 26763
L96237 26744
L96199 26726
L96124 26726
L96087 26744
L96068 26763
L96049 26801
" />
<path d="M95880 26482
L95880 26444
L95899 26407
L95918 26388
L95955 26369
L96030 26351
L96124 26351
L96199 26369
L96237 26388
L96255 26407
L96274 26444
L96274 26482
L96255 26519
L96237 26538
L96199 26557
L96124 26576
L96030 26576
L95955 26557
L95918 26538
L95899 26519
L95880 26482
" />
<g transform="rotate(-90 96096.5 26980.3)">
<text x="96096.5" y="27177.2"
textLength="845.426" font-size="524.934" lengthAdjust="spacingAndGlyphs"
text-anchor="middle" opacity="0">R7</text>
</g>
<path d="M96274 27045
L96087 27177
" />
<path d="M96274 27270
L95880 27270
L95880 27120
L95899 27083
L95918 27064
L95955 27045
L96012 27045
L96049 27064
L96068 27083
L96087 27120
L96087 27270
" />
<path d="M95880 26914
L95880 26652
L96274 26820
" />
<g transform="rotate(-90 68429.9 32200)">
<text x="68429.9" y="32396.9"
textLength="4201.26" font-size="524.934" lengthAdjust="spacingAndGlyphs"
text-anchor="middle" opacity="0">ENC_L_Header</text>
</g>
<path d="M68401 34168
L68401 34037
" />
<path d="M68608 33981
L68608 34168
L68214 34168
L68214 33981
" />
<path d="M68608 33812
L68214 33812
L68608 33587
L68214 33587
" />
<path d="M68570 33174
L68589 33193
L68608 33249
L68608 33287
L68589 33343
L68551 33381
L68514 33399
L68439 33418
L68383 33418
L68308 33399
L68270 33381
L68233 33343
L68214 33287
L68214 33249
L68233 33193
L68251 33174
" />
<path d="M68645 33099
L68645 32799
" />
<path d="M68608 32518
L68608 32706
L68214 32706
" />
<path d="M68645 32481
L68645 32181
" />
<path d="M68608 32087
L68214 32087
" />
<path d="M68401 32087
L68401 31862
" />
<path d="M68608 31862
L68214 31862
" />
<path d="M68589 31525
L68608 31562
L68608 31637
L68589 31675
L68551 31693
L68401 31693
L68364 31675
L68345 31637
L68345 31562
L68364 31525
L68401 31506
L68439 31506
L68476 31693
" />
<path d="M68608 31168
L68401 31168
L68364 31187
L68345 31225
L68345 31300
L68364 31337
" />
<path d="M68589 31168
L68608 31206
L68608 31300
L68589 31337
L68551 31356
L68514 31356
L68476 31337
L68458 31300
L68458 31206
L68439 31168
" />
<path d="M68608 30812
L68214 30812
" />
<path d="M68589 30812
L68608 30850
L68608 30925
L68589 30962
L68570 30981
L68533 31000
L68420 31000
L68383 30981
L68364 30962
L68345 30925
L68345 30850
L68364 30812
" />
<path d="M68589 30475
L68608 30512
L68608 30587
L68589 30625
L68551 30643
L68401 30643
L68364 30625
L68345 30587
L68345 30512
L68364 30475
L68401 30456
L68439 30456
L68476 30643
" />
<path d="M68608 30287
L68345 30287
" />
<path d="M68420 30287
L68383 30268
L68364 30250
L68345 30212
L68345 30175
" />
<text x="71000" y="33087.4"
textLength="4576.21" font-size="524.934" lengthAdjust="spacingAndGlyphs"
text-anchor="middle" opacity="0">ENC_L_Header1</text>
<path d="M68844 32862
L68975 32862
" />
<path d="M69031 33068
L68844 33068
L68844 32674
L69031 32674
" />
<path d="M69200 33068
L69200 32674
L69425 33068
L69425 32674
" />
<path d="M69837 33031
L69818 33049
L69762 33068
L69725 33068
L69668 33049
L69631 33012
L69612 32974
L69593 32899
L69593 32843
L69612 32768
L69631 32731
L69668 32693
L69725 32674
L69762 32674
L69818 32693
L69837 32712
" />
<path d="M69912 33106
L70212 33106
" />
<path d="M70493 33068
L70306 33068
L70306 32674
" />
<path d="M70531 33106
L70831 33106
" />
<path d="M70925 33068
L70925 32674
" />
<path d="M70925 32862
L71149 32862
" />
<path d="M71149 33068
L71149 32674
" />
<path d="M71487 33049
L71449 33068
L71374 33068
L71337 33049
L71318 33012
L71318 32862
L71337 32824
L71374 32806
L71449 32806
L71487 32824
L71506 32862
L71506 32899
L71318 32937
" />
<path d="M71843 33068
L71843 32862
L71824 32824
L71787 32806
L71712 32806
L71674 32824
" />
<path d="M71843 33049
L71806 33068
L71712 33068
L71674 33049
L71656 33012
L71656 32974
L71674 32937
L71712 32918
L71806 32918
L71843 32899
" />
<path d="M72199 33068
L72199 32674
" />
<path d="M72199 33049
L72162 33068
L72087 33068
L72049 33049
L72031 33031
L72012 32993
L72012 32881
L72031 32843
L72049 32824
L72087 32806
L72162 32806
L72199 32824
" />
<path d="M72537 33049
L72499 33068
L72424 33068
L72387 33049
L72368 33012
L72368 32862
L72387 32824
L72424 32806
L72499 32806
L72537 32824
L72556 32862
L72556 32899
L72368 32937
" />
<path d="M72724 33068
L72724 32806
" />
<path d="M72724 32881
L72743 32843
L72762 32824
L72799 32806
L72837 32806
" />
<path d="M73174 33068
L72949 33068
" />
<path d="M73062 33068
L73062 32674
L73024 32731
L72987 32768
L72949 32787
" />
<text x="95269.7" y="31307.1"
textLength="4276.25" font-size="524.934" lengthAdjust="spacingAndGlyphs"
text-anchor="middle" opacity="0">ENC_R_Header</text>
<path d="M93263 31082
L93394 31082
" />
<path d="M93451 31288
L93263 31288
L93263 30894
L93451 30894
" />
<path d="M93619 31288
L93619 30894
L93844 31288
L93844 30894
" />
<path d="M94257 31250
L94238 31269
L94182 31288
L94144 31288
L94088 31269
L94051 31232
L94032 31194
L94013 31119
L94013 31063
L94032 30988
L94051 30950
L94088 30913
L94144 30894
L94182 30894
L94238 30913
L94257 30932
" />
<path d="M94332 31325
L94632 31325
" />
<path d="M94950 31288
L94819 31100
" />
<path d="M94726 31288
L94726 30894
L94875 30894
L94913 30913
L94932 30932
L94950 30969
L94950 31025
L94932 31063
L94913 31082
L94875 31100
L94726 31100
" />
<path d="M95025 31325
L95325 31325
" />
<path d="M95419 31288
L95419 30894
" />
<path d="M95419 31082
L95644 31082
" />
<path d="M95644 31288
L95644 30894
" />
<path d="M95982 31269
L95944 31288
L95869 31288
L95832 31269
L95813 31232
L95813 31082
L95832 31044
L95869 31025
L95944 31025
L95982 31044
L96000 31082
L96000 31119
L95813 31157
" />
<path d="M96338 31288
L96338 31082
L96319 31044
L96282 31025
L96207 31025
L96169 31044
" />
<path d="M96338 31269
L96300 31288
L96207 31288
L96169 31269
L96150 31232
L96150 31194
L96169 31157
L96207 31138
L96300 31138
L96338 31119
" />
<path d="M96694 31288
L96694 30894
" />
<path d="M96694 31269
L96657 31288
L96582 31288
L96544 31269
L96525 31250
L96507 31213
L96507 31100
L96525 31063
L96544 31044
L96582 31025
L96657 31025
L96694 31044
" />
<path d="M97031 31269
L96994 31288
L96919 31288
L96881 31269
L96863 31232
L96863 31082
L96881 31044
L96919 31025
L96994 31025
L97031 31044
L97050 31082
L97050 31119
L96863 31157
" />
<path d="M97219 31288
L97219 31025
" />
<path d="M97219 31100
L97238 31063
L97256 31044
L97294 31025
L97331 31025
" />
<g transform="rotate(-90 100939 12885.8)">
<text x="100939" y="13082.7"
textLength="1276.62" font-size="524.934" lengthAdjust="spacingAndGlyphs"
text-anchor="middle" opacity="0">SW2</text>
</g>
<path d="M101097 13410
L101116 13354
L101116 13260
L101097 13223
L101079 13204
L101041 13185
L101004 13185
L100966 13204
L100947 13223
L100929 13260
L100910 13335
L100891 13373
L100872 13392
L100835 13410
L100797 13410
L100760 13392
L100741 13373
L100722 13335
L100722 13242
L100741 13185
" />
<path d="M100722 13054
L101116 12960
L100835 12885
L101116 12810
L100722 12717
" />
<path d="M100760 12585
L100741 12567
L100722 12529
L100722 12435
L100741 12398
L100760 12379
L100797 12360
L100835 12360
L100891 12379
L101116 12604
L101116 12360
" />
<text x="69626" y="10438.3"
textLength="1276.62" font-size="524.934" lengthAdjust="spacingAndGlyphs"
text-anchor="middle" opacity="0">SW1</text>
<path d="M69101 10400
L69157 10419
L69251 10419
L69288 10400
L69307 10382
L69326 10344
L69326 10307
L69307 10269
L69288 10250
L69251 10232
L69176 10213
L69138 10194
L69119 10175
L69101 10138
L69101 10100
L69119 10063
L69138 10044
L69176 10025
L69269 10025
L69326 10044
" />
<path d="M69457 10025
L69550 10419
L69625 10138
L69700 10419
L69794 10025
" />
<path d="M70150 10419
L69925 10419
" />
<path d="M70038 10419
L70038 10025
L70000 10082
L69963 10119
L69925 10138
" />
<g transform="rotate(-90 101750 34271.7)">
<text x="101750" y="34468.5"
textLength="1145.39" font-size="524.934" lengthAdjust="spacingAndGlyphs"
text-anchor="middle" opacity="0">LED</text>
</g>
<path d="M101928 34524
L101928 34712
L101534 34712
" />
<path d="M101721 34393
L101721 34262
" />
<path d="M101928 34206
L101928 34393
L101534 34393
L101534 34206
" />
<path d="M101928 34037
L101534 34037
L101534 33943
L101553 33887
L101590 33849
L101628 33831
L101703 33812
L101759 33812
L101834 33831
L101871 33849
L101909 33887
L101928 33943
L101928 34037
" />
<g transform="rotate(-90 101750 36830.7)">
<text x="101750" y="37027.6"
textLength="1145.39" font-size="524.934" lengthAdjust="spacingAndGlyphs"
text-anchor="middle" opacity="0">LED</text>
</g>
<path d="M101928 37083
L101928 37271
L101534 37271
" />
<path d="M101721 36952
L101721 36821
" />
<path d="M101928 36765
L101928 36952
L101534 36952
L101534 36765
" />
<path d="M101928 36596
L101534 36596
L101534 36502
L101553 36446
L101590 36408
L101628 36390
L101703 36371
L101759 36371
L101834 36390
L101871 36408
L101909 36446
L101928 36502
L101928 36596
" />
<g >
</g>
</g>
<g style="fill:#000000; fill-opacity:0.0; 
stroke:#000000; stroke-width:59.0551; stroke-opacity:1; 
stroke-linecap:round; stroke-linejoin:round;">
</g>
<g style="fill:#C2C200; fill-opacity:0.0; 
stroke:#C2C200; stroke-width:59.0551; stroke-opacity:1; 
stroke-linecap:round; stroke-linejoin:round;">
</g>
<g style="fill:#C2C200; fill-opacity:0.0; 
stroke:#C2C200; stroke-width:39.3701; stroke-opacity:1; 
stroke-linecap:round; stroke-linejoin:round;">
<path d="M100209 38274
L101683 38276
" />
<path d="M101684 38276.4 A788.67 788.67 0.0 0 0 102500 37488.2" />
<path d="M100209 38274.8 A788.67 788.67 0.0 0 0 99393 39063" />
<path d="M98576.8 39851.2 A788.67 788.67 0.0 0 0 99393 39063" />
<path d="M65505.1 37036.8 A788.67 788.67 0.0 0 0 66293.3 37853.1" />
<path d="M67197 37853
L66293 37853
" />
<path d="M67985.4 38669.3 A788.67 788.67 0.0 0 0 67197.2 37853.1" />
<path d="M67985 39034
L67985 38669
" />
<path d="M67985.4 39035 A788.67 788.67 0.0 0 0 68773.6 39851.2" />
</g>
<g style="fill:#C2C200; fill-opacity:1.0; 
stroke:#C2C200; stroke-width:0; stroke-opacity:1; 
stroke-linecap:round; stroke-linejoin:round;">
<circle cx="102500" cy="36464.6" r="19.685" /> 
<circle cx="102500" cy="36464.6" r="19.685" /> 
</g>
<g style="fill:#C2C200; fill-opacity:1.0; 
stroke:#C2C200; stroke-width:39.3701; stroke-opacity:1; 
stroke-linecap:round; stroke-linejoin:round;">
</g>
<g style="fill:#C2C200; fill-opacity:0.0; 
stroke:#C2C200; stroke-width:39.3701; stroke-opacity:1; 
stroke-linecap:round; stroke-linejoin:round;">
<path d="M68773 39851
L83957 39851
" />
<path d="M83957.9 39851.2 A800 800 0.0 0 0 84757.9 39051.2" />
<path d="M92788.6 39035 A788.67 788.67 0.0 0 0 93576.8 39851.2" />
<path d="M92789 33500
L84757 33500
" />
<path d="M84757 33500
L84757 39051
" />
<path d="M92789 33500
L92788 39034
" />
<path d="M102500 9300 A800 800 0.0 0 0 101700 8500" />
<path d="M98576 39851
L93576 39851
" />
<path d="M102500 9300
L102500 37488
" />
<path d="M66300 8500
L101700 8500
" />
<path d="M65505 37036
L65500 9300
" />
<path d="M66300 8500 A800 800 0.0 0 0 65500 9300" />
<g >
</g>
<g >
</g>
<g >
</g>
<g >
</g>
<g >
</g>
<g >
</g>
<g >
</g>
<g >
</g>
<g >
</g>
<g >
</g>
<g >
</g>
<g >
</g>
<g >
</g>
<g >
</g>
<g >
</g>
<g >
</g>
<g >
</g>
<g >
</g>
<g >
</g>
<g >
</g>
<g >
</g>
<g >
</g>
<g >
</g>
<g >
</g>
<g >
</g>
</g> 
</svg>
